<svg id="visual" viewBox="0 0 900 600" width="900" height="600" xmlns="http://www.w3.org/2000/svg" xmlns:xlink="http://www.w3.org/1999/xlink" version="1.1"><g stroke-width="1" stroke-linejoin="bevel"><path d="M421 288L437 203L399 285Z" fill="#48535e" stroke="#48535e"></path><path d="M437 203L373 195L399 285Z" fill="#434e59" stroke="#434e59"></path><path d="M437 203L389 168L373 195Z" fill="#6c7881" stroke="#6c7881"></path><path d="M437 203L422 161L389 168Z" fill="#57626d" stroke="#57626d"></path><path d="M421 288L533 247L437 203Z" fill="#6c7881" stroke="#6c7881"></path><path d="M437 203L525 173L422 161Z" fill="#4d5863" stroke="#4d5863"></path><path d="M268 202L299 277L373 195Z" fill="#3a4450" stroke="#3a4450"></path><path d="M373 195L299 277L399 285Z" fill="#3f4955" stroke="#3f4955"></path><path d="M399 285L422 394L421 288Z" fill="#3a4450" stroke="#3a4450"></path><path d="M299 277L347 352L399 285Z" fill="#57626d" stroke="#57626d"></path><path d="M421 288L544 270L533 247Z" fill="#4d5863" stroke="#4d5863"></path><path d="M533 247L525 173L437 203Z" fill="#57626d" stroke="#57626d"></path><path d="M539 389L544 270L421 288Z" fill="#6c7881" stroke="#6c7881"></path><path d="M533 247L609 234L525 173Z" fill="#616d77" stroke="#616d77"></path><path d="M525 173L452 100L422 161Z" fill="#616d77" stroke="#616d77"></path><path d="M422 161L452 100L389 168Z" fill="#67737c" stroke="#67737c"></path><path d="M281 67L279 181L389 168Z" fill="#6c7881" stroke="#6c7881"></path><path d="M389 168L279 181L373 195Z" fill="#57626d" stroke="#57626d"></path><path d="M347 352L422 394L399 285Z" fill="#525d68" stroke="#525d68"></path><path d="M279 181L268 202L373 195Z" fill="#525d68" stroke="#525d68"></path><path d="M299 277L311 357L347 352Z" fill="#5c6872" stroke="#5c6872"></path><path d="M347 352L381 426L422 394Z" fill="#67737c" stroke="#67737c"></path><path d="M228 304L311 357L299 277Z" fill="#3f4955" stroke="#3f4955"></path><path d="M539 389L577 306L544 270Z" fill="#434e59" stroke="#434e59"></path><path d="M544 270L609 234L533 247Z" fill="#434e59" stroke="#434e59"></path><path d="M279 181L245 202L268 202Z" fill="#57626d" stroke="#57626d"></path><path d="M268 202L245 202L299 277Z" fill="#4d5863" stroke="#4d5863"></path><path d="M311 357L381 426L347 352Z" fill="#3f4955" stroke="#3f4955"></path><path d="M422 394L539 389L421 288Z" fill="#3f4955" stroke="#3f4955"></path><path d="M501 466L539 389L422 394Z" fill="#434e59" stroke="#434e59"></path><path d="M577 306L609 234L544 270Z" fill="#434e59" stroke="#434e59"></path><path d="M525 173L525 51L452 100Z" fill="#5c6872" stroke="#5c6872"></path><path d="M381 426L427 439L422 394Z" fill="#3f4955" stroke="#3f4955"></path><path d="M245 202L228 304L299 277Z" fill="#525d68" stroke="#525d68"></path><path d="M311 357L297 452L381 426Z" fill="#48535e" stroke="#48535e"></path><path d="M452 100L346 45L389 168Z" fill="#57626d" stroke="#57626d"></path><path d="M279 181L215 135L245 202Z" fill="#67737c" stroke="#67737c"></path><path d="M609 136L580 102L525 173Z" fill="#616d77" stroke="#616d77"></path><path d="M452 100L439 0L346 45Z" fill="#67737c" stroke="#67737c"></path><path d="M609 234L609 136L525 173Z" fill="#616d77" stroke="#616d77"></path><path d="M580 102L525 51L525 173Z" fill="#6c7881" stroke="#6c7881"></path><path d="M346 45L281 67L389 168Z" fill="#6c7881" stroke="#6c7881"></path><path d="M281 67L215 135L279 181Z" fill="#3a4450" stroke="#3a4450"></path><path d="M245 202L181 294L228 304Z" fill="#616d77" stroke="#616d77"></path><path d="M539 389L599 387L577 306Z" fill="#6c7881" stroke="#6c7881"></path><path d="M577 306L693 284L609 234Z" fill="#616d77" stroke="#616d77"></path><path d="M606 431L599 387L539 389Z" fill="#6c7881" stroke="#6c7881"></path><path d="M431 513L501 466L427 439Z" fill="#3f4955" stroke="#3f4955"></path><path d="M427 439L501 466L422 394Z" fill="#57626d" stroke="#57626d"></path><path d="M136 255L181 294L245 202Z" fill="#616d77" stroke="#616d77"></path><path d="M215 399L297 452L311 357Z" fill="#57626d" stroke="#57626d"></path><path d="M215 399L311 357L228 304Z" fill="#525d68" stroke="#525d68"></path><path d="M381 426L388 501L427 439Z" fill="#48535e" stroke="#48535e"></path><path d="M525 51L439 0L452 100Z" fill="#5c6872" stroke="#5c6872"></path><path d="M346 45L306 0L281 67Z" fill="#5c6872" stroke="#5c6872"></path><path d="M439 0L369 0L346 45Z" fill="#434e59" stroke="#434e59"></path><path d="M175 357L215 399L228 304Z" fill="#4d5863" stroke="#4d5863"></path><path d="M297 452L388 501L381 426Z" fill="#525d68" stroke="#525d68"></path><path d="M606 431L656 355L599 387Z" fill="#3a4450" stroke="#3a4450"></path><path d="M599 387L656 355L577 306Z" fill="#434e59" stroke="#434e59"></path><path d="M705 209L653 121L609 136Z" fill="#6c7881" stroke="#6c7881"></path><path d="M181 294L175 357L228 304Z" fill="#57626d" stroke="#57626d"></path><path d="M609 136L653 121L580 102Z" fill="#57626d" stroke="#57626d"></path><path d="M600 0L550 0L525 51Z" fill="#48535e" stroke="#48535e"></path><path d="M525 51L550 0L439 0Z" fill="#6c7881" stroke="#6c7881"></path><path d="M705 209L609 136L609 234Z" fill="#48535e" stroke="#48535e"></path><path d="M369 0L306 0L346 45Z" fill="#616d77" stroke="#616d77"></path><path d="M281 67L204 66L215 135Z" fill="#3a4450" stroke="#3a4450"></path><path d="M501 466L606 431L539 389Z" fill="#4d5863" stroke="#4d5863"></path><path d="M388 501L431 513L427 439Z" fill="#525d68" stroke="#525d68"></path><path d="M501 466L580 504L606 431Z" fill="#3a4450" stroke="#3a4450"></path><path d="M242 0L204 66L281 67Z" fill="#434e59" stroke="#434e59"></path><path d="M128 143L136 255L245 202Z" fill="#3a4450" stroke="#3a4450"></path><path d="M600 0L525 51L580 102Z" fill="#525d68" stroke="#525d68"></path><path d="M656 355L693 284L577 306Z" fill="#434e59" stroke="#434e59"></path><path d="M128 143L245 202L215 135Z" fill="#3f4955" stroke="#3f4955"></path><path d="M181 294L69 276L175 357Z" fill="#525d68" stroke="#525d68"></path><path d="M215 399L240 463L297 452Z" fill="#525d68" stroke="#525d68"></path><path d="M297 452L287 554L388 501Z" fill="#616d77" stroke="#616d77"></path><path d="M460 600L515 552L431 513Z" fill="#3f4955" stroke="#3f4955"></path><path d="M124 446L240 463L215 399Z" fill="#4d5863" stroke="#4d5863"></path><path d="M693 284L705 209L609 234Z" fill="#6c7881" stroke="#6c7881"></path><path d="M306 0L242 0L281 67Z" fill="#67737c" stroke="#67737c"></path><path d="M135 71L215 135L204 66Z" fill="#57626d" stroke="#57626d"></path><path d="M135 71L128 143L215 135Z" fill="#57626d" stroke="#57626d"></path><path d="M669 45L600 0L580 102Z" fill="#434e59" stroke="#434e59"></path><path d="M669 45L580 102L653 121Z" fill="#3a4450" stroke="#3a4450"></path><path d="M515 552L580 504L501 466Z" fill="#57626d" stroke="#57626d"></path><path d="M606 431L691 450L656 355Z" fill="#525d68" stroke="#525d68"></path><path d="M766 290L740 224L693 284Z" fill="#434e59" stroke="#434e59"></path><path d="M128 143L100 209L136 255Z" fill="#434e59" stroke="#434e59"></path><path d="M136 255L69 276L181 294Z" fill="#434e59" stroke="#434e59"></path><path d="M732 69L669 45L653 121Z" fill="#3a4450" stroke="#3a4450"></path><path d="M431 513L515 552L501 466Z" fill="#57626d" stroke="#57626d"></path><path d="M396 600L431 513L388 501Z" fill="#525d68" stroke="#525d68"></path><path d="M693 284L740 224L705 209Z" fill="#67737c" stroke="#67737c"></path><path d="M705 209L770 175L653 121Z" fill="#67737c" stroke="#67737c"></path><path d="M766 290L693 284L768 399Z" fill="#434e59" stroke="#434e59"></path><path d="M136 0L135 71L204 66Z" fill="#434e59" stroke="#434e59"></path><path d="M128 143L45 135L100 209Z" fill="#3f4955" stroke="#3f4955"></path><path d="M204 551L287 554L240 463Z" fill="#67737c" stroke="#67737c"></path><path d="M240 463L287 554L297 452Z" fill="#67737c" stroke="#67737c"></path><path d="M643 512L606 431L580 504Z" fill="#3a4450" stroke="#3a4450"></path><path d="M643 512L691 450L606 431Z" fill="#3f4955" stroke="#3f4955"></path><path d="M100 209L69 276L136 255Z" fill="#3f4955" stroke="#3f4955"></path><path d="M175 357L124 446L215 399Z" fill="#57626d" stroke="#57626d"></path><path d="M0 214L69 276L100 209Z" fill="#48535e" stroke="#48535e"></path><path d="M621 600L643 512L580 504Z" fill="#525d68" stroke="#525d68"></path><path d="M768 399L693 284L656 355Z" fill="#5c6872" stroke="#5c6872"></path><path d="M56 356L124 446L175 357Z" fill="#3a4450" stroke="#3a4450"></path><path d="M287 554L396 600L388 501Z" fill="#3f4955" stroke="#3f4955"></path><path d="M515 552L621 600L580 504Z" fill="#6c7881" stroke="#6c7881"></path><path d="M396 600L460 600L431 513Z" fill="#434e59" stroke="#434e59"></path><path d="M836 206L770 175L740 224Z" fill="#5c6872" stroke="#5c6872"></path><path d="M740 224L770 175L705 209Z" fill="#57626d" stroke="#57626d"></path><path d="M770 175L732 69L653 121Z" fill="#525d68" stroke="#525d68"></path><path d="M669 45L697 0L600 0Z" fill="#6c7881" stroke="#6c7881"></path><path d="M242 0L136 0L204 66Z" fill="#434e59" stroke="#434e59"></path><path d="M135 71L45 135L128 143Z" fill="#67737c" stroke="#67737c"></path><path d="M732 69L697 0L669 45Z" fill="#67737c" stroke="#67737c"></path><path d="M460 600L526 600L515 552Z" fill="#3a4450" stroke="#3a4450"></path><path d="M124 446L204 551L240 463Z" fill="#67737c" stroke="#67737c"></path><path d="M287 554L281 600L396 600Z" fill="#525d68" stroke="#525d68"></path><path d="M69 276L56 356L175 357Z" fill="#3a4450" stroke="#3a4450"></path><path d="M218 600L281 600L287 554Z" fill="#6c7881" stroke="#6c7881"></path><path d="M728 475L768 399L691 450Z" fill="#57626d" stroke="#57626d"></path><path d="M691 450L768 399L656 355Z" fill="#3f4955" stroke="#3f4955"></path><path d="M766 290L836 206L740 224Z" fill="#48535e" stroke="#48535e"></path><path d="M47 49L45 135L135 71Z" fill="#6c7881" stroke="#6c7881"></path><path d="M69 276L0 302L56 356Z" fill="#525d68" stroke="#525d68"></path><path d="M766 504L728 475L643 512Z" fill="#48535e" stroke="#48535e"></path><path d="M643 512L728 475L691 450Z" fill="#4d5863" stroke="#4d5863"></path><path d="M0 366L56 425L56 356Z" fill="#3f4955" stroke="#3f4955"></path><path d="M56 356L56 425L124 446Z" fill="#3f4955" stroke="#3f4955"></path><path d="M124 446L128 541L204 551Z" fill="#48535e" stroke="#48535e"></path><path d="M168 600L218 600L204 551Z" fill="#57626d" stroke="#57626d"></path><path d="M204 551L218 600L287 554Z" fill="#67737c" stroke="#67737c"></path><path d="M810 0L744 0L732 69Z" fill="#616d77" stroke="#616d77"></path><path d="M732 69L744 0L697 0Z" fill="#3f4955" stroke="#3f4955"></path><path d="M526 600L621 600L515 552Z" fill="#3a4450" stroke="#3a4450"></path><path d="M136 0L81 0L135 71Z" fill="#5c6872" stroke="#5c6872"></path><path d="M99 523L128 541L124 446Z" fill="#616d77" stroke="#616d77"></path><path d="M768 399L823 330L766 290Z" fill="#5c6872" stroke="#5c6872"></path><path d="M770 175L829 120L732 69Z" fill="#4d5863" stroke="#4d5863"></path><path d="M832 402L823 330L768 399Z" fill="#48535e" stroke="#48535e"></path><path d="M81 0L47 49L135 71Z" fill="#3f4955" stroke="#3f4955"></path><path d="M0 168L100 209L45 135Z" fill="#57626d" stroke="#57626d"></path><path d="M0 168L0 214L100 209Z" fill="#434e59" stroke="#434e59"></path><path d="M0 214L0 302L69 276Z" fill="#67737c" stroke="#67737c"></path><path d="M823 330L836 206L766 290Z" fill="#4d5863" stroke="#4d5863"></path><path d="M0 50L0 168L45 135Z" fill="#616d77" stroke="#616d77"></path><path d="M56 425L99 523L124 446Z" fill="#57626d" stroke="#57626d"></path><path d="M128 541L168 600L204 551Z" fill="#4d5863" stroke="#4d5863"></path><path d="M0 458L99 523L56 425Z" fill="#6c7881" stroke="#6c7881"></path><path d="M621 600L650 600L643 512Z" fill="#5c6872" stroke="#5c6872"></path><path d="M728 475L799 477L768 399Z" fill="#3a4450" stroke="#3a4450"></path><path d="M836 206L829 120L770 175Z" fill="#6c7881" stroke="#6c7881"></path><path d="M0 302L0 366L56 356Z" fill="#3a4450" stroke="#3a4450"></path><path d="M90 600L168 600L128 541Z" fill="#3f4955" stroke="#3f4955"></path><path d="M748 600L766 504L643 512Z" fill="#616d77" stroke="#616d77"></path><path d="M799 477L832 402L768 399Z" fill="#434e59" stroke="#434e59"></path><path d="M900 274L900 213L836 206Z" fill="#3f4955" stroke="#3f4955"></path><path d="M847 550L799 477L766 504Z" fill="#57626d" stroke="#57626d"></path><path d="M766 504L799 477L728 475Z" fill="#434e59" stroke="#434e59"></path><path d="M0 0L0 50L47 49Z" fill="#525d68" stroke="#525d68"></path><path d="M47 49L0 50L45 135Z" fill="#4d5863" stroke="#4d5863"></path><path d="M900 127L849 88L829 120Z" fill="#525d68" stroke="#525d68"></path><path d="M829 120L849 88L732 69Z" fill="#434e59" stroke="#434e59"></path><path d="M900 127L829 120L836 206Z" fill="#3a4450" stroke="#3a4450"></path><path d="M849 88L810 0L732 69Z" fill="#67737c" stroke="#67737c"></path><path d="M0 366L0 458L56 425Z" fill="#434e59" stroke="#434e59"></path><path d="M99 523L90 600L128 541Z" fill="#3a4450" stroke="#3a4450"></path><path d="M81 0L0 0L47 49Z" fill="#4d5863" stroke="#4d5863"></path><path d="M0 554L90 600L99 523Z" fill="#5c6872" stroke="#5c6872"></path><path d="M900 274L836 206L823 330Z" fill="#6c7881" stroke="#6c7881"></path><path d="M900 355L900 274L823 330Z" fill="#5c6872" stroke="#5c6872"></path><path d="M900 355L823 330L832 402Z" fill="#6c7881" stroke="#6c7881"></path><path d="M650 600L748 600L643 512Z" fill="#434e59" stroke="#434e59"></path><path d="M900 426L900 355L832 402Z" fill="#4d5863" stroke="#4d5863"></path><path d="M900 426L832 402L799 477Z" fill="#6c7881" stroke="#6c7881"></path><path d="M900 213L900 127L836 206Z" fill="#3f4955" stroke="#3f4955"></path><path d="M849 88L900 0L810 0Z" fill="#57626d" stroke="#57626d"></path><path d="M900 127L900 76L849 88Z" fill="#67737c" stroke="#67737c"></path><path d="M900 502L900 426L799 477Z" fill="#57626d" stroke="#57626d"></path><path d="M0 458L0 554L99 523Z" fill="#57626d" stroke="#57626d"></path><path d="M829 600L847 550L766 504Z" fill="#3a4450" stroke="#3a4450"></path><path d="M900 76L900 0L849 88Z" fill="#434e59" stroke="#434e59"></path><path d="M748 600L829 600L766 504Z" fill="#616d77" stroke="#616d77"></path><path d="M847 550L900 502L799 477Z" fill="#525d68" stroke="#525d68"></path><path d="M0 554L0 600L90 600Z" fill="#57626d" stroke="#57626d"></path><path d="M900 600L900 502L847 550Z" fill="#525d68" stroke="#525d68"></path><path d="M829 600L900 600L847 550Z" fill="#57626d" stroke="#57626d"></path></g></svg>