<svg id="visual" viewBox="0 0 900 600" width="900" height="600" xmlns="http://www.w3.org/2000/svg" xmlns:xlink="http://www.w3.org/1999/xlink" version="1.1"><g stroke-width="1" stroke-linejoin="bevel"><path d="M436 281L531 250L452 238Z" fill="#48535e" stroke="#48535e"></path><path d="M436 281L514 327L531 250Z" fill="#616d77" stroke="#616d77"></path><path d="M514 327L591 278L531 250Z" fill="#434e59" stroke="#434e59"></path><path d="M588 218L508 172L531 250Z" fill="#525d68" stroke="#525d68"></path><path d="M531 250L508 172L452 238Z" fill="#5c6872" stroke="#5c6872"></path><path d="M422 401L507 387L514 327Z" fill="#3a4450" stroke="#3a4450"></path><path d="M514 327L602 378L591 278Z" fill="#616d77" stroke="#616d77"></path><path d="M591 278L588 218L531 250Z" fill="#5c6872" stroke="#5c6872"></path><path d="M379 196L365 318L436 281Z" fill="#3a4450" stroke="#3a4450"></path><path d="M436 281L422 401L514 327Z" fill="#67737c" stroke="#67737c"></path><path d="M379 196L436 281L452 238Z" fill="#4d5863" stroke="#4d5863"></path><path d="M508 172L421 160L452 238Z" fill="#5c6872" stroke="#5c6872"></path><path d="M421 160L379 196L452 238Z" fill="#4d5863" stroke="#4d5863"></path><path d="M365 318L422 401L436 281Z" fill="#5c6872" stroke="#5c6872"></path><path d="M588 218L584 157L508 172Z" fill="#5c6872" stroke="#5c6872"></path><path d="M466 76L393 144L421 160Z" fill="#5c6872" stroke="#5c6872"></path><path d="M556 444L602 378L507 387Z" fill="#4d5863" stroke="#4d5863"></path><path d="M507 387L602 378L514 327Z" fill="#3a4450" stroke="#3a4450"></path><path d="M591 278L681 225L588 218Z" fill="#616d77" stroke="#616d77"></path><path d="M588 218L667 154L584 157Z" fill="#6c7881" stroke="#6c7881"></path><path d="M466 76L421 160L508 172Z" fill="#616d77" stroke="#616d77"></path><path d="M421 160L393 144L379 196Z" fill="#3a4450" stroke="#3a4450"></path><path d="M373 401L432 431L422 401Z" fill="#4d5863" stroke="#4d5863"></path><path d="M422 401L432 431L507 387Z" fill="#616d77" stroke="#616d77"></path><path d="M365 318L373 401L422 401Z" fill="#3f4955" stroke="#3f4955"></path><path d="M602 378L647 345L591 278Z" fill="#67737c" stroke="#67737c"></path><path d="M647 345L658 331L591 278Z" fill="#4d5863" stroke="#4d5863"></path><path d="M432 431L556 444L507 387Z" fill="#67737c" stroke="#67737c"></path><path d="M602 378L604 428L647 345Z" fill="#616d77" stroke="#616d77"></path><path d="M556 444L604 428L602 378Z" fill="#4d5863" stroke="#4d5863"></path><path d="M647 345L749 403L658 331Z" fill="#616d77" stroke="#616d77"></path><path d="M574 77L466 76L508 172Z" fill="#6c7881" stroke="#6c7881"></path><path d="M658 331L681 225L591 278Z" fill="#67737c" stroke="#67737c"></path><path d="M667 154L574 77L584 157Z" fill="#67737c" stroke="#67737c"></path><path d="M584 157L574 77L508 172Z" fill="#4d5863" stroke="#4d5863"></path><path d="M681 225L667 154L588 218Z" fill="#5c6872" stroke="#5c6872"></path><path d="M379 196L270 295L365 318Z" fill="#4d5863" stroke="#4d5863"></path><path d="M365 318L276 402L373 401Z" fill="#67737c" stroke="#67737c"></path><path d="M272 193L270 295L379 196Z" fill="#4d5863" stroke="#4d5863"></path><path d="M466 76L351 102L393 144Z" fill="#3a4450" stroke="#3a4450"></path><path d="M393 144L296 152L379 196Z" fill="#4d5863" stroke="#4d5863"></path><path d="M330 441L385 478L373 401Z" fill="#616d77" stroke="#616d77"></path><path d="M373 401L385 478L432 431Z" fill="#616d77" stroke="#616d77"></path><path d="M432 431L475 513L556 444Z" fill="#616d77" stroke="#616d77"></path><path d="M351 102L296 152L393 144Z" fill="#434e59" stroke="#434e59"></path><path d="M276 402L330 441L373 401Z" fill="#48535e" stroke="#48535e"></path><path d="M296 152L272 193L379 196Z" fill="#5c6872" stroke="#5c6872"></path><path d="M385 478L475 513L432 431Z" fill="#67737c" stroke="#67737c"></path><path d="M556 444L626 523L604 428Z" fill="#616d77" stroke="#616d77"></path><path d="M575 0L553 44L574 77Z" fill="#4d5863" stroke="#4d5863"></path><path d="M574 77L553 44L466 76Z" fill="#3a4450" stroke="#3a4450"></path><path d="M466 76L397 0L351 102Z" fill="#6c7881" stroke="#6c7881"></path><path d="M270 295L276 402L365 318Z" fill="#57626d" stroke="#57626d"></path><path d="M475 513L545 520L556 444Z" fill="#434e59" stroke="#434e59"></path><path d="M772 270L741 250L658 331Z" fill="#4d5863" stroke="#4d5863"></path><path d="M658 331L741 250L681 225Z" fill="#3a4450" stroke="#3a4450"></path><path d="M681 225L754 161L667 154Z" fill="#3f4955" stroke="#3f4955"></path><path d="M665 470L647 345L604 428Z" fill="#3f4955" stroke="#3f4955"></path><path d="M210 226L227 302L270 295Z" fill="#48535e" stroke="#48535e"></path><path d="M270 295L227 302L276 402Z" fill="#5c6872" stroke="#5c6872"></path><path d="M385 478L404 525L475 513Z" fill="#3a4450" stroke="#3a4450"></path><path d="M475 513L520 600L545 520Z" fill="#3f4955" stroke="#3f4955"></path><path d="M294 497L404 525L385 478Z" fill="#57626d" stroke="#57626d"></path><path d="M294 497L385 478L330 441Z" fill="#616d77" stroke="#616d77"></path><path d="M626 523L665 470L604 428Z" fill="#48535e" stroke="#48535e"></path><path d="M296 152L238 165L272 193Z" fill="#6c7881" stroke="#6c7881"></path><path d="M272 193L210 226L270 295Z" fill="#4d5863" stroke="#4d5863"></path><path d="M199 92L238 165L296 152Z" fill="#616d77" stroke="#616d77"></path><path d="M553 44L502 0L466 76Z" fill="#48535e" stroke="#48535e"></path><path d="M351 102L301 57L296 152Z" fill="#525d68" stroke="#525d68"></path><path d="M502 0L432 0L466 76Z" fill="#4d5863" stroke="#4d5863"></path><path d="M238 165L210 226L272 193Z" fill="#48535e" stroke="#48535e"></path><path d="M667 154L655 48L574 77Z" fill="#4d5863" stroke="#4d5863"></path><path d="M553 44L575 0L502 0Z" fill="#434e59" stroke="#434e59"></path><path d="M732 64L655 48L667 154Z" fill="#67737c" stroke="#67737c"></path><path d="M588 600L626 523L545 520Z" fill="#525d68" stroke="#525d68"></path><path d="M545 520L626 523L556 444Z" fill="#5c6872" stroke="#5c6872"></path><path d="M749 403L772 270L658 331Z" fill="#5c6872" stroke="#5c6872"></path><path d="M741 250L754 161L681 225Z" fill="#57626d" stroke="#57626d"></path><path d="M397 0L301 57L351 102Z" fill="#5c6872" stroke="#5c6872"></path><path d="M655 48L575 0L574 77Z" fill="#616d77" stroke="#616d77"></path><path d="M432 0L397 0L466 76Z" fill="#616d77" stroke="#616d77"></path><path d="M815 172L754 161L741 250Z" fill="#57626d" stroke="#57626d"></path><path d="M756 429L749 403L665 470Z" fill="#3f4955" stroke="#3f4955"></path><path d="M665 470L749 403L647 345Z" fill="#3f4955" stroke="#3f4955"></path><path d="M195 419L294 497L276 402Z" fill="#67737c" stroke="#67737c"></path><path d="M276 402L294 497L330 441Z" fill="#3f4955" stroke="#3f4955"></path><path d="M684 526L756 429L665 470Z" fill="#5c6872" stroke="#5c6872"></path><path d="M749 403L818 301L772 270Z" fill="#57626d" stroke="#57626d"></path><path d="M133 313L180 346L227 302Z" fill="#434e59" stroke="#434e59"></path><path d="M227 302L194 392L276 402Z" fill="#3a4450" stroke="#3a4450"></path><path d="M180 346L194 392L227 302Z" fill="#525d68" stroke="#525d68"></path><path d="M659 600L684 526L626 523Z" fill="#48535e" stroke="#48535e"></path><path d="M626 523L684 526L665 470Z" fill="#6c7881" stroke="#6c7881"></path><path d="M397 0L317 0L301 57Z" fill="#3f4955" stroke="#3f4955"></path><path d="M301 57L199 92L296 152Z" fill="#67737c" stroke="#67737c"></path><path d="M754 161L732 64L667 154Z" fill="#4d5863" stroke="#4d5863"></path><path d="M655 48L697 0L575 0Z" fill="#57626d" stroke="#57626d"></path><path d="M143 480L195 419L60 404Z" fill="#48535e" stroke="#48535e"></path><path d="M194 392L195 419L276 402Z" fill="#4d5863" stroke="#4d5863"></path><path d="M449 600L520 600L475 513Z" fill="#616d77" stroke="#616d77"></path><path d="M449 600L475 513L404 525Z" fill="#616d77" stroke="#616d77"></path><path d="M402 600L449 600L404 525Z" fill="#616d77" stroke="#616d77"></path><path d="M838 404L818 301L749 403Z" fill="#525d68" stroke="#525d68"></path><path d="M834 202L815 172L741 250Z" fill="#48535e" stroke="#48535e"></path><path d="M754 161L839 71L732 64Z" fill="#48535e" stroke="#48535e"></path><path d="M318 600L402 600L404 525Z" fill="#3a4450" stroke="#3a4450"></path><path d="M318 600L404 525L294 497Z" fill="#3a4450" stroke="#3a4450"></path><path d="M520 600L588 600L545 520Z" fill="#616d77" stroke="#616d77"></path><path d="M200 0L199 92L301 57Z" fill="#434e59" stroke="#434e59"></path><path d="M238 165L132 133L210 226Z" fill="#57626d" stroke="#57626d"></path><path d="M210 226L144 253L227 302Z" fill="#3a4450" stroke="#3a4450"></path><path d="M132 133L144 253L210 226Z" fill="#48535e" stroke="#48535e"></path><path d="M180 346L60 404L194 392Z" fill="#3a4450" stroke="#3a4450"></path><path d="M834 202L741 250L772 270Z" fill="#3a4450" stroke="#3a4450"></path><path d="M719 551L793 433L756 429Z" fill="#3f4955" stroke="#3f4955"></path><path d="M756 429L793 433L749 403Z" fill="#57626d" stroke="#57626d"></path><path d="M750 0L697 0L732 64Z" fill="#4d5863" stroke="#4d5863"></path><path d="M732 64L697 0L655 48Z" fill="#5c6872" stroke="#5c6872"></path><path d="M818 301L834 202L772 270Z" fill="#57626d" stroke="#57626d"></path><path d="M144 253L133 313L227 302Z" fill="#5c6872" stroke="#5c6872"></path><path d="M684 526L719 551L756 429Z" fill="#3a4450" stroke="#3a4450"></path><path d="M659 600L719 551L684 526Z" fill="#4d5863" stroke="#4d5863"></path><path d="M229 600L318 600L294 497Z" fill="#57626d" stroke="#57626d"></path><path d="M588 600L659 600L626 523Z" fill="#434e59" stroke="#434e59"></path><path d="M195 419L194 508L294 497Z" fill="#3a4450" stroke="#3a4450"></path><path d="M143 480L194 508L195 419Z" fill="#3a4450" stroke="#3a4450"></path><path d="M850 496L838 404L793 433Z" fill="#525d68" stroke="#525d68"></path><path d="M793 433L838 404L749 403Z" fill="#3a4450" stroke="#3a4450"></path><path d="M818 301L900 247L834 202Z" fill="#616d77" stroke="#616d77"></path><path d="M839 71L754 161L815 172Z" fill="#434e59" stroke="#434e59"></path><path d="M817 0L750 0L732 64Z" fill="#434e59" stroke="#434e59"></path><path d="M199 92L132 133L238 165Z" fill="#6c7881" stroke="#6c7881"></path><path d="M144 253L78 306L133 313Z" fill="#67737c" stroke="#67737c"></path><path d="M136 62L132 133L199 92Z" fill="#67737c" stroke="#67737c"></path><path d="M317 0L200 0L301 57Z" fill="#5c6872" stroke="#5c6872"></path><path d="M60 404L195 419L194 392Z" fill="#6c7881" stroke="#6c7881"></path><path d="M194 508L229 600L294 497Z" fill="#4d5863" stroke="#4d5863"></path><path d="M143 480L175 532L194 508Z" fill="#48535e" stroke="#48535e"></path><path d="M900 141L839 71L815 172Z" fill="#67737c" stroke="#67737c"></path><path d="M900 141L815 172L834 202Z" fill="#434e59" stroke="#434e59"></path><path d="M43 245L78 306L144 253Z" fill="#48535e" stroke="#48535e"></path><path d="M133 313L60 404L180 346Z" fill="#434e59" stroke="#434e59"></path><path d="M200 0L136 62L199 92Z" fill="#6c7881" stroke="#6c7881"></path><path d="M132 133L43 245L144 253Z" fill="#525d68" stroke="#525d68"></path><path d="M900 327L900 247L818 301Z" fill="#616d77" stroke="#616d77"></path><path d="M175 532L229 600L194 508Z" fill="#3a4450" stroke="#3a4450"></path><path d="M838 404L900 327L818 301Z" fill="#616d77" stroke="#616d77"></path><path d="M659 600L753 600L719 551Z" fill="#525d68" stroke="#525d68"></path><path d="M719 551L850 496L793 433Z" fill="#3a4450" stroke="#3a4450"></path><path d="M838 404L900 374L900 327Z" fill="#57626d" stroke="#57626d"></path><path d="M900 456L900 374L838 404Z" fill="#3a4450" stroke="#3a4450"></path><path d="M809 600L850 496L719 551Z" fill="#67737c" stroke="#67737c"></path><path d="M900 0L817 0L839 71Z" fill="#48535e" stroke="#48535e"></path><path d="M839 71L817 0L732 64Z" fill="#616d77" stroke="#616d77"></path><path d="M900 247L900 141L834 202Z" fill="#616d77" stroke="#616d77"></path><path d="M136 62L80 120L132 133Z" fill="#4d5863" stroke="#4d5863"></path><path d="M200 0L141 0L136 62Z" fill="#6c7881" stroke="#6c7881"></path><path d="M136 62L56 61L80 120Z" fill="#3f4955" stroke="#3f4955"></path><path d="M80 120L43 245L132 133Z" fill="#48535e" stroke="#48535e"></path><path d="M78 306L60 404L133 313Z" fill="#4d5863" stroke="#4d5863"></path><path d="M0 389L60 404L78 306Z" fill="#48535e" stroke="#48535e"></path><path d="M143 480L53 507L175 532Z" fill="#3a4450" stroke="#3a4450"></path><path d="M175 532L163 600L229 600Z" fill="#3f4955" stroke="#3f4955"></path><path d="M60 404L86 475L143 480Z" fill="#48535e" stroke="#48535e"></path><path d="M900 528L900 456L850 496Z" fill="#434e59" stroke="#434e59"></path><path d="M850 496L900 456L838 404Z" fill="#3a4450" stroke="#3a4450"></path><path d="M753 600L809 600L719 551Z" fill="#3f4955" stroke="#3f4955"></path><path d="M73 600L163 600L175 532Z" fill="#67737c" stroke="#67737c"></path><path d="M900 141L900 57L839 71Z" fill="#48535e" stroke="#48535e"></path><path d="M0 175L0 233L43 245Z" fill="#6c7881" stroke="#6c7881"></path><path d="M70 0L56 61L136 62Z" fill="#67737c" stroke="#67737c"></path><path d="M809 600L900 528L850 496Z" fill="#57626d" stroke="#57626d"></path><path d="M0 434L53 507L86 475Z" fill="#6c7881" stroke="#6c7881"></path><path d="M43 245L0 307L78 306Z" fill="#67737c" stroke="#67737c"></path><path d="M0 233L0 307L43 245Z" fill="#6c7881" stroke="#6c7881"></path><path d="M0 175L43 245L80 120Z" fill="#525d68" stroke="#525d68"></path><path d="M0 434L86 475L60 404Z" fill="#3a4450" stroke="#3a4450"></path><path d="M86 475L53 507L143 480Z" fill="#6c7881" stroke="#6c7881"></path><path d="M900 57L900 0L839 71Z" fill="#3f4955" stroke="#3f4955"></path><path d="M0 99L0 175L80 120Z" fill="#4d5863" stroke="#4d5863"></path><path d="M141 0L70 0L136 62Z" fill="#57626d" stroke="#57626d"></path><path d="M56 61L0 99L80 120Z" fill="#434e59" stroke="#434e59"></path><path d="M0 307L0 389L78 306Z" fill="#5c6872" stroke="#5c6872"></path><path d="M0 389L0 434L60 404Z" fill="#3f4955" stroke="#3f4955"></path><path d="M0 0L0 99L56 61Z" fill="#434e59" stroke="#434e59"></path><path d="M809 600L900 600L900 528Z" fill="#3f4955" stroke="#3f4955"></path><path d="M53 507L73 600L175 532Z" fill="#3a4450" stroke="#3a4450"></path><path d="M0 542L73 600L53 507Z" fill="#434e59" stroke="#434e59"></path><path d="M0 434L0 542L53 507Z" fill="#5c6872" stroke="#5c6872"></path><path d="M70 0L0 0L56 61Z" fill="#57626d" stroke="#57626d"></path><path d="M0 542L0 600L73 600Z" fill="#3a4450" stroke="#3a4450"></path></g></svg>